<svg xmlns="http://www.w3.org/2000/svg" width="1120" height="520" viewBox="0 0 1120 520">
<style>
text { font-family: "Microsoft YaHei", "PingFang SC", Arial, sans-serif; fill: #243447; }
.title { font-size: 26px; font-weight: 700; }
.sub { font-size: 18px; fill: #5b6b7a; }
.small { font-size: 14px; fill: #5b6b7a; }
.normal { font-size: 18px; }
.node { fill: #eef3ff; stroke: #4c6fff; stroke-width: 2; }
.hot { fill: #fff3cd; stroke: #e0ad00; stroke-width: 2.4; }
.good { fill: #d7fbe8; stroke: #2ea44f; stroke-width: 2.4; }
.red { fill: #ffe6e6; stroke: #d64242; stroke-width: 2.4; }
.line { stroke: #8290a3; stroke-width: 2; fill: none; }
.arrow { stroke: #3757d6; stroke-width: 3; fill: none; marker-end: url(#arrow); }
.gray { fill: #f4f5f7; stroke: #ccd2da; stroke-width: 1.5; }
</style>
<defs><marker id="arrow" markerWidth="10" markerHeight="8" refX="8" refY="4" orient="auto"><path d="M0,0 L10,4 L0,8 z" fill="#3757d6"/></marker></defs>
<rect width="100%" height="100%" fill="#fff"/><text x="40" y="48" class="title">树状数组维护区间 · 步骤 3</text><text x="40" y="82" class="sub">query(6)：用若干个不重叠区间拼出前缀 [1,6]。</text><rect x="90" y="140" width="95" height="42" rx="8" class="good"/><text x="137.5" y="168" text-anchor="middle" class="normal">a[1]</text><rect x="193" y="140" width="95" height="42" rx="8" class="good"/><text x="240.5" y="168" text-anchor="middle" class="normal">a[2]</text><rect x="296" y="140" width="95" height="42" rx="8" class="good"/><text x="343.5" y="168" text-anchor="middle" class="normal">a[3]</text><rect x="399" y="140" width="95" height="42" rx="8" class="good"/><text x="446.5" y="168" text-anchor="middle" class="normal">a[4]</text><rect x="502" y="140" width="95" height="42" rx="8" class="good"/><text x="549.5" y="168" text-anchor="middle" class="normal">a[5]</text><rect x="605" y="140" width="95" height="42" rx="8" class="good"/><text x="652.5" y="168" text-anchor="middle" class="normal">a[6]</text><rect x="708" y="140" width="95" height="42" rx="8" class="node"/><text x="755.5" y="168" text-anchor="middle" class="normal">a[7]</text><rect x="811" y="140" width="95" height="42" rx="8" class="node"/><text x="858.5" y="168" text-anchor="middle" class="normal">a[8]</text><rect x="90" y="230" width="95" height="34" rx="8" class="gray"/><text x="137.5" y="253" text-anchor="middle" class="small">tree[1] 管 [1,1]</text><rect x="90" y="278" width="198" height="34" rx="8" class="gray"/><text x="189.0" y="301" text-anchor="middle" class="small">tree[2] 管 [1,2]</text><rect x="296" y="278" width="95" height="34" rx="8" class="gray"/><text x="343.5" y="301" text-anchor="middle" class="small">tree[3] 管 [3,3]</text><rect x="90" y="326" width="404" height="34" rx="8" class="hot"/><text x="292.0" y="349" text-anchor="middle" class="small">tree[4] 管 [1,4]</text><rect x="502" y="326" width="95" height="34" rx="8" class="gray"/><text x="549.5" y="349" text-anchor="middle" class="small">tree[5] 管 [5,5]</text><rect x="502" y="326" width="198" height="34" rx="8" class="hot"/><text x="601.0" y="349" text-anchor="middle" class="small">tree[6] 管 [5,6]</text><rect x="708" y="326" width="95" height="34" rx="8" class="gray"/><text x="755.5" y="349" text-anchor="middle" class="small">tree[7] 管 [7,7]</text><rect x="90" y="230" width="816" height="34" rx="8" class="gray"/><text x="498.0" y="253" text-anchor="middle" class="small">tree[8] 管 [1,8]</text><rect x="80" y="430" width="960" height="58" rx="14" class="gray"/><text x="115" y="466" class="normal">• query(6) 访问 tree[6] 和 tree[4]，对应 [5,6] 与 [1,4]，合起来正好是 [1,6]。</text></svg>