<svg xmlns="http://www.w3.org/2000/svg" width="1050" height="430" viewBox="0 0 1050 430"><style>
text { font-family: "Microsoft YaHei", "PingFang SC", Arial, sans-serif; fill: #243447; }
.small { font-size: 16px; }
.normal { font-size: 20px; }
.big { font-size: 26px; font-weight: 700; }
.muted { fill: #5b6b7a; }
.gray { fill: #f4f5f7; stroke: #c7ccd1; stroke-width: 1.5; }
.box { fill: #eef3ff; stroke: #4c6fff; stroke-width: 2.2; }
.hot { fill: #fff3cd; stroke: #e0ad00; stroke-width: 2.2; }
.good { fill: #d7fbe8; stroke: #2ea44f; stroke-width: 2.2; }
</style><rect width="100%" height="100%" fill="#ffffff"/><text x="40" y="48" class="big">单调栈维护过程 · 步骤 5</text><text x="40" y="84" class="normal muted">读入 4，栈顶 5 更大，4 入栈。</text><rect x="80" y="140" width="80" height="60" rx="14" class="box"/><text x="120.0" y="178.0" text-anchor="middle" class="normal">3</text><rect x="185" y="140" width="80" height="60" rx="14" class="box"/><text x="225.0" y="178.0" text-anchor="middle" class="normal">1</text><rect x="290" y="140" width="80" height="60" rx="14" class="box"/><text x="330.0" y="178.0" text-anchor="middle" class="normal">2</text><rect x="395" y="140" width="80" height="60" rx="14" class="box"/><text x="435.0" y="178.0" text-anchor="middle" class="normal">5</text><rect x="500" y="140" width="80" height="60" rx="14" class="hot"/><text x="540.0" y="178.0" text-anchor="middle" class="normal">4</text><rect x="720" y="290" width="160" height="42" rx="14" class="good"/><text x="800.0" y="319.0" text-anchor="middle" class="normal">栈：5</text><rect x="720" y="235" width="160" height="42" rx="14" class="good"/><text x="800.0" y="264.0" text-anchor="middle" class="normal">栈：4</text><rect x="80" y="325" width="890" height="70" rx="14" class="gray"/><text x="115" y="368" class="normal muted">• 左侧最近更大值是 5。</text></svg>