<svg xmlns="http://www.w3.org/2000/svg" width="1120" height="580" viewBox="0 0 1120 580">
<style>
text { font-family: "Microsoft YaHei", "PingFang SC", Arial, sans-serif; fill: #243447; }
.title { font-size: 26px; font-weight: 700; }
.sub { font-size: 18px; fill: #5b6b7a; }
.small { font-size: 14px; fill: #5b6b7a; }
.normal { font-size: 18px; }
.node { fill: #eef3ff; stroke: #4c6fff; stroke-width: 2; }
.hot { fill: #fff3cd; stroke: #e0ad00; stroke-width: 2.4; }
.good { fill: #d7fbe8; stroke: #2ea44f; stroke-width: 2.4; }
.red { fill: #ffe6e6; stroke: #d64242; stroke-width: 2.4; }
.line { stroke: #8290a3; stroke-width: 2; fill: none; }
.arrow { stroke: #3757d6; stroke-width: 3; fill: none; marker-end: url(#arrow); }
.gray { fill: #f4f5f7; stroke: #ccd2da; stroke-width: 1.5; }
</style>
<defs><marker id="arrow" markerWidth="10" markerHeight="8" refX="8" refY="4" orient="auto"><path d="M0,0 L10,4 L0,8 z" fill="#3757d6"/></marker></defs>
<rect width="100%" height="100%" fill="#fff"/><text x="40" y="48" class="title">线段树区间划分 · 步骤 4</text><text x="40" y="82" class="sub">区间修改 [1,4] 时，可在节点 [1,4] 打 lazy 标记，暂不下传到叶子。</text><path d="M560,144 L330,196" class="line"/><path d="M560,144 L790,196" class="line"/><path d="M330,244 L205,306" class="line"/><path d="M330,244 L455,306" class="line"/><path d="M790,244 L665,306" class="line"/><path d="M790,244 L915,306" class="line"/><path d="M205,354 L130,421" class="line"/><path d="M205,354 L280,421" class="line"/><path d="M455,354 L405,421" class="line"/><path d="M455,354 L505,421" class="line"/><path d="M665,354 L615,421" class="line"/><path d="M665,354 L715,421" class="line"/><path d="M915,354 L865,421" class="line"/><path d="M915,354 L965,421" class="line"/><rect x="514" y="96" width="92" height="48" rx="10" class="node"/><text x="560" y="126" text-anchor="middle" class="normal">[1,8]</text><rect x="284" y="196" width="92" height="48" rx="10" class="good"/><text x="330" y="226" text-anchor="middle" class="normal">[1,4]</text><text x="330" y="264" text-anchor="middle" class="small">lazy += v</text><rect x="744" y="196" width="92" height="48" rx="10" class="node"/><text x="790" y="226" text-anchor="middle" class="normal">[5,8]</text><rect x="159" y="306" width="92" height="48" rx="10" class="node"/><text x="205" y="336" text-anchor="middle" class="normal">[1,2]</text><rect x="409" y="306" width="92" height="48" rx="10" class="node"/><text x="455" y="336" text-anchor="middle" class="normal">[3,4]</text><rect x="619" y="306" width="92" height="48" rx="10" class="node"/><text x="665" y="336" text-anchor="middle" class="normal">[5,6]</text><rect x="869" y="306" width="92" height="48" rx="10" class="node"/><text x="915" y="336" text-anchor="middle" class="normal">[7,8]</text><rect x="84" y="421" width="92" height="48" rx="10" class="node"/><text x="130" y="451" text-anchor="middle" class="normal">[1,1]</text><rect x="234" y="421" width="92" height="48" rx="10" class="node"/><text x="280" y="451" text-anchor="middle" class="normal">[2,2]</text><rect x="359" y="421" width="92" height="48" rx="10" class="node"/><text x="405" y="451" text-anchor="middle" class="normal">[3,3]</text><rect x="459" y="421" width="92" height="48" rx="10" class="node"/><text x="505" y="451" text-anchor="middle" class="normal">[4,4]</text><rect x="569" y="421" width="92" height="48" rx="10" class="node"/><text x="615" y="451" text-anchor="middle" class="normal">[5,5]</text><rect x="669" y="421" width="92" height="48" rx="10" class="node"/><text x="715" y="451" text-anchor="middle" class="normal">[6,6]</text><rect x="819" y="421" width="92" height="48" rx="10" class="node"/><text x="865" y="451" text-anchor="middle" class="normal">[7,7]</text><rect x="919" y="421" width="92" height="48" rx="10" class="node"/><text x="965" y="451" text-anchor="middle" class="normal">[8,8]</text><rect x="70" y="515" width="980" height="45" rx="14" class="gray"/><text x="100" y="544" class="normal">• lazy 标记表示整段已经被更新；只有查询或修改深入到子区间时才需要下传。</text></svg>