<svg xmlns="http://www.w3.org/2000/svg" width="1000" height="420" viewBox="0 0 1000 420"><style>
text { font-family: "Microsoft YaHei", "PingFang SC", Arial, sans-serif; fill: #243447; }
.small { font-size: 16px; }
.normal { font-size: 20px; }
.big { font-size: 26px; font-weight: 700; }
.muted { fill: #5b6b7a; }
.gray { fill: #f4f5f7; stroke: #c7ccd1; stroke-width: 1.5; }
.edge { stroke: #768399; stroke-width: 2.2; }
.arrow { stroke: #3757d6; stroke-width: 3; fill: none; marker-end: url(#arrow); }
.arrow2 { stroke: #d64242; stroke-width: 3; fill: none; marker-end: url(#arrow2); }
.white { fill: white; }
line.grid { stroke: #cfd6e6; stroke-width: 2; }
</style>
<defs>
  <marker id="arrow" markerWidth="10" markerHeight="8" refX="8" refY="4" orient="auto"><path d="M0,0 L10,4 L0,8 z" fill="#3757d6"/></marker>
  <marker id="arrow2" markerWidth="10" markerHeight="8" refX="8" refY="4" orient="auto"><path d="M0,0 L10,4 L0,8 z" fill="#d64242"/></marker>
</defs><rect width="100%" height="100%" fill="#ffffff"/><text x="40" y="48" class="big">网格 BFS 过程图 · 步骤 4</text><text x="40" y="84" class="normal muted">终点第一次出现在队列中时，得到的步数就是最短路。</text><line x1="70" y1="120" x2="350" y2="120" class="grid"/><line x1="70" y1="120" x2="70" y2="400" class="grid"/><line x1="70" y1="190" x2="350" y2="190" class="grid"/><line x1="140" y1="120" x2="140" y2="400" class="grid"/><line x1="70" y1="260" x2="350" y2="260" class="grid"/><line x1="210" y1="120" x2="210" y2="400" class="grid"/><line x1="70" y1="330" x2="350" y2="330" class="grid"/><line x1="280" y1="120" x2="280" y2="400" class="grid"/><line x1="70" y1="400" x2="350" y2="400" class="grid"/><line x1="350" y1="120" x2="350" y2="400" class="grid"/><rect x="72" y="122" width="66" height="66" rx="8" fill="#d7fbe8" stroke="#2ea44f" stroke-width="2"/><text x="105.0" y="161.0" text-anchor="middle" class="small" fill="#243447">S</text><rect x="142" y="122" width="66" height="66" rx="8" fill="#eef3ff" stroke="#7f99f7" stroke-width="2"/><text x="175.0" y="161.0" text-anchor="middle" class="small" fill="#243447">0,1</text><rect x="212" y="122" width="66" height="66" rx="8" fill="#eef3ff" stroke="#7f99f7" stroke-width="2"/><text x="245.0" y="161.0" text-anchor="middle" class="small" fill="#243447">0,2</text><rect x="282" y="122" width="66" height="66" rx="8" fill="#30343f" stroke="#30343f" stroke-width="2"/><text x="315.0" y="161.0" text-anchor="middle" class="small" fill="white">障碍</text><rect x="72" y="192" width="66" height="66" rx="8" fill="#eef3ff" stroke="#7f99f7" stroke-width="2"/><text x="105.0" y="231.0" text-anchor="middle" class="small" fill="#243447">1,0</text><rect x="142" y="192" width="66" height="66" rx="8" fill="#eef3ff" stroke="#7f99f7" stroke-width="2"/><text x="175.0" y="231.0" text-anchor="middle" class="small" fill="#243447">1,1</text><rect x="212" y="192" width="66" height="66" rx="8" fill="#30343f" stroke="#30343f" stroke-width="2"/><text x="245.0" y="231.0" text-anchor="middle" class="small" fill="white">障碍</text><rect x="282" y="192" width="66" height="66" rx="8" fill="white" stroke="#cfd6e6" stroke-width="2"/><rect x="72" y="262" width="66" height="66" rx="8" fill="#30343f" stroke="#30343f" stroke-width="2"/><text x="105.0" y="301.0" text-anchor="middle" class="small" fill="white">障碍</text><rect x="142" y="262" width="66" height="66" rx="8" fill="#eef3ff" stroke="#7f99f7" stroke-width="2"/><text x="175.0" y="301.0" text-anchor="middle" class="small" fill="#243447">2,1</text><rect x="212" y="262" width="66" height="66" rx="8" fill="#eef3ff" stroke="#7f99f7" stroke-width="2"/><text x="245.0" y="301.0" text-anchor="middle" class="small" fill="#243447">2,2</text><rect x="282" y="262" width="66" height="66" rx="8" fill="#eef3ff" stroke="#7f99f7" stroke-width="2"/><text x="315.0" y="301.0" text-anchor="middle" class="small" fill="#243447">2,3</text><rect x="72" y="332" width="66" height="66" rx="8" fill="white" stroke="#cfd6e6" stroke-width="2"/><rect x="142" y="332" width="66" height="66" rx="8" fill="#eef3ff" stroke="#7f99f7" stroke-width="2"/><text x="175.0" y="371.0" text-anchor="middle" class="small" fill="#243447">3,1</text><rect x="212" y="332" width="66" height="66" rx="8" fill="#30343f" stroke="#30343f" stroke-width="2"/><text x="245.0" y="371.0" text-anchor="middle" class="small" fill="white">障碍</text><rect x="282" y="332" width="66" height="66" rx="8" fill="#fff3cd" stroke="#d64242" stroke-width="2"/><text x="315.0" y="371.0" text-anchor="middle" class="small" fill="#243447">T</text><rect x="420" y="120" width="520" height="210" rx="16" class="gray"/><text x="450" y="155" class="big">队列与层次</text><text x="450" y="205" class="normal">当前队列：[..., (2,3), (3,3)]</text><text x="450" y="245" class="normal muted">• 终点第一次被访问时对应最短步数。</text><text x="450" y="283" class="normal muted">• 若队列空仍未到达，则不可达。</text></svg>