<svg xmlns="http://www.w3.org/2000/svg" width="1000" height="460" viewBox="0 0 1000 460"><style>
text { font-family: "Microsoft YaHei", "PingFang SC", Arial, sans-serif; fill: #243447; }
.small { font-size: 16px; }
.normal { font-size: 20px; }
.big { font-size: 26px; font-weight: 700; }
.muted { fill: #5b6b7a; }
.gray { fill: #f4f5f7; stroke: #c7ccd1; stroke-width: 1.5; }
.edge { stroke: #768399; stroke-width: 2.2; }
.arrow { stroke: #3757d6; stroke-width: 3; fill: none; marker-end: url(#arrow); }
.arrow2 { stroke: #d64242; stroke-width: 3; fill: none; marker-end: url(#arrow2); }
.white { fill: white; }
line.grid { stroke: #cfd6e6; stroke-width: 2; }
</style>
<defs>
  <marker id="arrow" markerWidth="10" markerHeight="8" refX="8" refY="4" orient="auto"><path d="M0,0 L10,4 L0,8 z" fill="#3757d6"/></marker>
  <marker id="arrow2" markerWidth="10" markerHeight="8" refX="8" refY="4" orient="auto"><path d="M0,0 L10,4 L0,8 z" fill="#d64242"/></marker>
</defs><rect width="100%" height="100%" fill="#ffffff"/><text x="40" y="48" class="big">Dijkstra 松弛过程 · 步骤 2</text><text x="40" y="82" class="normal muted">弹出当前最短点 1，松弛 1 的邻边。</text><line x1="130" y1="200" x2="350" y2="120" class="arrow"/><rect x="222.0" y="144.0" width="36" height="28" rx="8" class="white" stroke="#c7ccd1"/><text x="240.0" y="165.0" text-anchor="middle" class="small">2</text><line x1="130" y1="200" x2="350" y2="280" class="arrow"/><rect x="222.0" y="224.0" width="36" height="28" rx="8" class="white" stroke="#c7ccd1"/><text x="240.0" y="245.0" text-anchor="middle" class="small">5</text><line x1="350" y1="120" x2="350" y2="280" class="edge"/><rect x="332.0" y="184.0" width="36" height="28" rx="8" class="white" stroke="#c7ccd1"/><text x="350.0" y="205.0" text-anchor="middle" class="small">1</text><line x1="350" y1="120" x2="600" y2="200" class="edge"/><rect x="457.0" y="144.0" width="36" height="28" rx="8" class="white" stroke="#c7ccd1"/><text x="475.0" y="165.0" text-anchor="middle" class="small">4</text><line x1="350" y1="280" x2="600" y2="200" class="edge"/><rect x="457.0" y="224.0" width="36" height="28" rx="8" class="white" stroke="#c7ccd1"/><text x="475.0" y="245.0" text-anchor="middle" class="small">2</text><circle cx="130" cy="200" r="34" fill="#d7fbe8" stroke="#2ea44f" stroke-width="3"/><text x="130" y="208" text-anchor="middle" class="big">1</text><text x="130" y="258" text-anchor="middle" class="normal muted">dis=0</text><circle cx="350" cy="120" r="34" fill="#d7fbe8" stroke="#2ea44f" stroke-width="3"/><text x="350" y="128" text-anchor="middle" class="big">2</text><text x="350" y="178" text-anchor="middle" class="normal muted">dis=2</text><circle cx="350" cy="280" r="34" fill="#d7fbe8" stroke="#2ea44f" stroke-width="3"/><text x="350" y="288" text-anchor="middle" class="big">3</text><text x="350" y="338" text-anchor="middle" class="normal muted">dis=5</text><circle cx="600" cy="200" r="34" fill="#d7fbe8" stroke="#2ea44f" stroke-width="3"/><text x="600" y="208" text-anchor="middle" class="big">4</text><text x="600" y="258" text-anchor="middle" class="normal muted">dis=∞</text><rect x="680" y="105" width="260" height="250" rx="16" class="gray"/><text x="710" y="145" class="big">本轮说明</text><text x="710" y="190" class="normal muted">• 取出最小距离点 1。</text><text x="710" y="230" class="normal muted">• 尝试用 1 更新到 2 和 3 的距离。</text><text x="710" y="320" class="normal">当前堆：[(2,2),(5,3)]</text></svg>