<svg xmlns="http://www.w3.org/2000/svg" width="900" height="360" viewBox="0 0 900 360">
<defs><marker id="arrow" markerWidth="10" markerHeight="10" refX="8" refY="3" orient="auto"><path d="M0,0 L0,6 L9,3 z" fill="#3f51b5"/></marker></defs>
<style>
text{font-family:Arial,"Microsoft YaHei",sans-serif;font-size:16px;fill:#333}.small{font-size:13px;fill:#555}.title{font-size:20px;font-weight:700}.node{fill:#eef3ff;stroke:#3f51b5;stroke-width:2}.hot{fill:#fff3cd;stroke:#f0ad00;stroke-width:2}.done{fill:#e9f7ef;stroke:#2e7d32;stroke-width:2}.edge{stroke:#59636e;stroke-width:2}.arrow{stroke:#3f51b5;stroke-width:2;marker-end:url(#arrow)}.red{stroke:#d32f2f}.blue{stroke:#1976d2}.green{stroke:#2e7d32}
</style>

<text x="40" y="36" class="title">LCA 倍增向上跳</text>
<circle cx="430" cy="70" r="28" class="done"/><text x="422" y="76">1</text>
<circle cx="280" cy="150" r="28" class="node"/><text x="272" y="156">2</text><circle cx="580" cy="150" r="28" class="node"/><text x="572" y="156">3</text>
<circle cx="200" cy="240" r="28" class="node"/><text x="192" y="246">4</text><circle cx="360" cy="240" r="28" class="node"/><text x="352" y="246">5</text><circle cx="520" cy="240" r="28" class="hot"/><text x="512" y="246">6</text><circle cx="660" cy="240" r="28" class="hot"/><text x="652" y="246">7</text>
<line x1="406" y1="84" x2="304" y2="136" class="edge"/><line x1="454" y1="84" x2="556" y2="136" class="edge"/>
<line x1="260" y1="170" x2="220" y2="220" class="edge"/><line x1="300" y1="170" x2="340" y2="220" class="edge"/><line x1="560" y1="170" x2="535" y2="218" class="edge"/><line x1="600" y1="170" x2="645" y2="218" class="edge"/>
<path d="M520 210 C505 165, 530 135, 555 150" fill="none" class="arrow blue"/><path d="M660 210 C650 165, 620 135, 600 150" fill="none" class="arrow blue"/>
<path d="M580 120 C555 85, 500 65, 458 70" fill="none" class="arrow green"/>
<text x="610" y="85" class="small">先把深度调齐，再从大到小尝试跳 2^k 层</text>
<rect x="55" y="85" width="220" height="80" rx="12" fill="#f8f9fa" stroke="#ddd"/><text x="75" y="118">倍增预处理</text><text x="75" y="148" class="small">pa[x][k] = pa[pa[x][k-1]][k-1]</text>

</svg>