<svg xmlns="http://www.w3.org/2000/svg" width="1000" height="460" viewBox="0 0 1000 460"><style>
text { font-family: "Microsoft YaHei", "PingFang SC", Arial, sans-serif; fill: #243447; }
.small { font-size: 16px; }
.normal { font-size: 20px; }
.big { font-size: 26px; font-weight: 700; }
.muted { fill: #5b6b7a; }
.gray { fill: #f4f5f7; stroke: #c7ccd1; stroke-width: 1.5; }
.edge { stroke: #768399; stroke-width: 2.2; }
.arrow { stroke: #3757d6; stroke-width: 3; fill: none; marker-end: url(#arrow); }
.arrow2 { stroke: #d64242; stroke-width: 3; fill: none; marker-end: url(#arrow2); }
.white { fill: white; }
line.grid { stroke: #cfd6e6; stroke-width: 2; }
</style>
<defs>
  <marker id="arrow" markerWidth="10" markerHeight="8" refX="8" refY="4" orient="auto"><path d="M0,0 L10,4 L0,8 z" fill="#3757d6"/></marker>
  <marker id="arrow2" markerWidth="10" markerHeight="8" refX="8" refY="4" orient="auto"><path d="M0,0 L10,4 L0,8 z" fill="#d64242"/></marker>
</defs><rect width="100%" height="100%" fill="#ffffff"/><text x="40" y="48" class="big">树上差分过程图 · 步骤 1</text><text x="40" y="82" class="normal muted">示例操作：给路径 4 → 5 上所有点加 3。</text><line x1="500" y1="90" x2="320" y2="190" class="edge"/><line x1="500" y1="90" x2="680" y2="190" class="edge"/><line x1="320" y1="190" x2="240" y2="310" class="arrow"/><line x1="320" y1="190" x2="400" y2="310" class="arrow"/><line x1="680" y1="190" x2="600" y2="310" class="edge"/><line x1="680" y1="190" x2="760" y2="310" class="edge"/><circle cx="500" cy="90" r="28" fill="#eef3ff" stroke="#4c6fff" stroke-width="3"/><text x="500" y="98" text-anchor="middle" class="normal">1</text><circle cx="320" cy="190" r="28" fill="#fff3cd" stroke="#e0ad00" stroke-width="3"/><text x="320" y="198" text-anchor="middle" class="normal">2</text><circle cx="680" cy="190" r="28" fill="#eef3ff" stroke="#4c6fff" stroke-width="3"/><text x="680" y="198" text-anchor="middle" class="normal">3</text><circle cx="240" cy="310" r="28" fill="#fff3cd" stroke="#e0ad00" stroke-width="3"/><text x="240" y="318" text-anchor="middle" class="normal">4</text><rect x="260" y="262" width="54" height="28" rx="8" fill="#ffffff" stroke="#c7ccd1"/><text x="287" y="282" text-anchor="middle" class="small">x</text><circle cx="400" cy="310" r="28" fill="#fff3cd" stroke="#e0ad00" stroke-width="3"/><text x="400" y="318" text-anchor="middle" class="normal">5</text><rect x="420" y="262" width="54" height="28" rx="8" fill="#ffffff" stroke="#c7ccd1"/><text x="447" y="282" text-anchor="middle" class="small">y</text><circle cx="600" cy="310" r="28" fill="#eef3ff" stroke="#4c6fff" stroke-width="3"/><text x="600" y="318" text-anchor="middle" class="normal">6</text><circle cx="760" cy="310" r="28" fill="#eef3ff" stroke="#4c6fff" stroke-width="3"/><text x="760" y="318" text-anchor="middle" class="normal">7</text><rect x="60" y="350" width="860" height="75" rx="14" class="gray"/><text x="90" y="395" class="normal muted">• 路径 4→5 经过的点是 4、2、5。</text></svg>