<svg xmlns="http://www.w3.org/2000/svg" width="1100" height="560" viewBox="0 0 1100 560"><style>
text { font-family: "Microsoft YaHei", "PingFang SC", Arial, sans-serif; fill: #243447; }
.title { font-size: 28px; font-weight: 700; }
.subtitle { font-size: 19px; fill: #5b6b7a; }
.normal { font-size: 20px; }
.small { font-size: 15px; }
.tiny { font-size: 13px; fill: #5b6b7a; }
.muted { fill: #5b6b7a; }
.cell { fill:#eef3ff; stroke:#4c6fff; stroke-width:2; }
.hot { fill:#fff3cd; stroke:#e0ad00; stroke-width:2.2; }
.good { fill:#d7fbe8; stroke:#2ea44f; stroke-width:2.2; }
.bad { fill:#ffe6e6; stroke:#d64242; stroke-width:2.2; }
.gray { fill:#f4f5f7; stroke:#c7ccd1; stroke-width:1.5; }
.white { fill:#ffffff; stroke:#c7ccd1; stroke-width:1.5; }
.arrow { stroke:#3757d6; stroke-width:3; fill:none; marker-end:url(#arrow); }
</style>
<defs>
  <marker id="arrow" markerWidth="10" markerHeight="8" refX="8" refY="4" orient="auto">
    <path d="M0,0 L10,4 L0,8 z" fill="#3757d6"/>
  </marker>
</defs><rect width="100%" height="100%" fill="#ffffff"/><text x="44" y="48" class="title">一维差分 · 步骤 3</text><text x="44" y="82" class="subtitle">在右端点后一个位置减 v，让影响从 r+1 开始消失。</text><text x="92" y="140" class="normal">位置</text><rect x="92" y="180" width="92" height="62" rx="10" class="cell"/><text x="138.0" y="218" text-anchor="middle" class="normal">1</text><rect x="202" y="180" width="92" height="62" rx="10" class="good"/><text x="248.0" y="218" text-anchor="middle" class="normal">+v</text><rect x="312" y="180" width="92" height="62" rx="10" class="hot"/><text x="358.0" y="218" text-anchor="middle" class="normal">3</text><rect x="422" y="180" width="92" height="62" rx="10" class="hot"/><text x="468.0" y="218" text-anchor="middle" class="normal">4</text><rect x="532" y="180" width="92" height="62" rx="10" class="bad"/><text x="578.0" y="218" text-anchor="middle" class="normal">-v</text><rect x="642" y="180" width="92" height="62" rx="10" class="cell"/><text x="688.0" y="218" text-anchor="middle" class="normal">6</text><rect x="760" y="170" width="290" height="170" rx="14" class="gray"/><text x="790" y="225" class="normal">d[r+1] -= v</text><text x="790" y="275" class="normal">从 r+1 开始抵消影响</text><rect x="70" y="470" width="960" height="58" rx="14" class="gray"/><text x="105" y="506" class="normal muted">• 在 r+1 处减 v，表示影响只保留在 [l,r] 内。</text></svg>