<svg xmlns="http://www.w3.org/2000/svg" width="1100" height="560" viewBox="0 0 1100 560"><style>
text { font-family: "Microsoft YaHei", "PingFang SC", Arial, sans-serif; fill: #243447; }
.title { font-size: 28px; font-weight: 700; }
.subtitle { font-size: 19px; fill: #5b6b7a; }
.normal { font-size: 20px; }
.small { font-size: 15px; }
.tiny { font-size: 13px; fill: #5b6b7a; }
.muted { fill: #5b6b7a; }
.cell { fill:#eef3ff; stroke:#4c6fff; stroke-width:2; }
.hot { fill:#fff3cd; stroke:#e0ad00; stroke-width:2.2; }
.good { fill:#d7fbe8; stroke:#2ea44f; stroke-width:2.2; }
.bad { fill:#ffe6e6; stroke:#d64242; stroke-width:2.2; }
.gray { fill:#f4f5f7; stroke:#c7ccd1; stroke-width:1.5; }
.white { fill:#ffffff; stroke:#c7ccd1; stroke-width:1.5; }
.arrow { stroke:#3757d6; stroke-width:3; fill:none; marker-end:url(#arrow); }
</style>
<defs>
  <marker id="arrow" markerWidth="10" markerHeight="8" refX="8" refY="4" orient="auto">
    <path d="M0,0 L10,4 L0,8 z" fill="#3757d6"/>
  </marker>
</defs><rect width="100%" height="100%" fill="#ffffff"/><text x="44" y="48" class="title">二维差分 · 步骤 1</text><text x="44" y="82" class="subtitle">二维差分用于对矩形区域做批量加值。</text><rect x="75" y="125" width="48" height="48" rx="8" class="cell"/><text x="99.0" y="154.0" text-anchor="middle" class="small">1,1</text><rect x="131" y="125" width="48" height="48" rx="8" class="cell"/><text x="155.0" y="154.0" text-anchor="middle" class="small">1,2</text><rect x="187" y="125" width="48" height="48" rx="8" class="cell"/><text x="211.0" y="154.0" text-anchor="middle" class="small">1,3</text><rect x="243" y="125" width="48" height="48" rx="8" class="cell"/><text x="267.0" y="154.0" text-anchor="middle" class="small">1,4</text><rect x="299" y="125" width="48" height="48" rx="8" class="cell"/><text x="323.0" y="154.0" text-anchor="middle" class="small">1,5</text><rect x="75" y="181" width="48" height="48" rx="8" class="cell"/><text x="99.0" y="210.0" text-anchor="middle" class="small">2,1</text><rect x="131" y="181" width="48" height="48" rx="8" class="hot"/><text x="155.0" y="210.0" text-anchor="middle" class="small">2,2</text><rect x="187" y="181" width="48" height="48" rx="8" class="hot"/><text x="211.0" y="210.0" text-anchor="middle" class="small">2,3</text><rect x="243" y="181" width="48" height="48" rx="8" class="hot"/><text x="267.0" y="210.0" text-anchor="middle" class="small">2,4</text><rect x="299" y="181" width="48" height="48" rx="8" class="cell"/><text x="323.0" y="210.0" text-anchor="middle" class="small">2,5</text><rect x="75" y="237" width="48" height="48" rx="8" class="cell"/><text x="99.0" y="266.0" text-anchor="middle" class="small">3,1</text><rect x="131" y="237" width="48" height="48" rx="8" class="hot"/><text x="155.0" y="266.0" text-anchor="middle" class="small">3,2</text><rect x="187" y="237" width="48" height="48" rx="8" class="hot"/><text x="211.0" y="266.0" text-anchor="middle" class="small">3,3</text><rect x="243" y="237" width="48" height="48" rx="8" class="hot"/><text x="267.0" y="266.0" text-anchor="middle" class="small">3,4</text><rect x="299" y="237" width="48" height="48" rx="8" class="cell"/><text x="323.0" y="266.0" text-anchor="middle" class="small">3,5</text><rect x="75" y="293" width="48" height="48" rx="8" class="cell"/><text x="99.0" y="322.0" text-anchor="middle" class="small">4,1</text><rect x="131" y="293" width="48" height="48" rx="8" class="cell"/><text x="155.0" y="322.0" text-anchor="middle" class="small">4,2</text><rect x="187" y="293" width="48" height="48" rx="8" class="cell"/><text x="211.0" y="322.0" text-anchor="middle" class="small">4,3</text><rect x="243" y="293" width="48" height="48" rx="8" class="cell"/><text x="267.0" y="322.0" text-anchor="middle" class="small">4,4</text><rect x="299" y="293" width="48" height="48" rx="8" class="cell"/><text x="323.0" y="322.0" text-anchor="middle" class="small">4,5</text><rect x="75" y="349" width="48" height="48" rx="8" class="cell"/><text x="99.0" y="378.0" text-anchor="middle" class="small">5,1</text><rect x="131" y="349" width="48" height="48" rx="8" class="cell"/><text x="155.0" y="378.0" text-anchor="middle" class="small">5,2</text><rect x="187" y="349" width="48" height="48" rx="8" class="cell"/><text x="211.0" y="378.0" text-anchor="middle" class="small">5,3</text><rect x="243" y="349" width="48" height="48" rx="8" class="cell"/><text x="267.0" y="378.0" text-anchor="middle" class="small">5,4</text><rect x="299" y="349" width="48" height="48" rx="8" class="cell"/><text x="323.0" y="378.0" text-anchor="middle" class="small">5,5</text><rect x="485" y="145" width="560" height="230" rx="14" class="gray"/><text x="520" y="210" class="normal">目标：给矩形 [r1..r2][c1..c2] 加 v</text><text x="520" y="260" class="normal">只改四个角，最后统一恢复</text><rect x="70" y="470" width="960" height="58" rx="14" class="gray"/><text x="105" y="506" class="normal muted">• 二维差分适合多次矩形加值，复杂度从逐格修改降到每次只改四个点。</text></svg>