<svg xmlns="http://www.w3.org/2000/svg" width="1100" height="560" viewBox="0 0 1100 560"><style>
text { font-family: "Microsoft YaHei", "PingFang SC", Arial, sans-serif; fill: #243447; }
.title { font-size: 28px; font-weight: 700; }
.subtitle { font-size: 19px; fill: #5b6b7a; }
.normal { font-size: 20px; }
.small { font-size: 15px; }
.tiny { font-size: 13px; fill: #5b6b7a; }
.muted { fill: #5b6b7a; }
.cell { fill:#eef3ff; stroke:#4c6fff; stroke-width:2; }
.hot { fill:#fff3cd; stroke:#e0ad00; stroke-width:2.2; }
.good { fill:#d7fbe8; stroke:#2ea44f; stroke-width:2.2; }
.bad { fill:#ffe6e6; stroke:#d64242; stroke-width:2.2; }
.gray { fill:#f4f5f7; stroke:#c7ccd1; stroke-width:1.5; }
.white { fill:#fff; stroke:#c7ccd1; stroke-width:1.5; }
.edge { stroke:#768399; stroke-width:2.4; }
.arrow { stroke:#3757d6; stroke-width:3; fill:none; marker-end:url(#arrow); }
.arrow2 { stroke:#d64242; stroke-width:3; fill:none; marker-end:url(#arrow2); }
</style>
<defs>
  <marker id="arrow" markerWidth="10" markerHeight="8" refX="8" refY="4" orient="auto"><path d="M0,0 L10,4 L0,8 z" fill="#3757d6"/></marker>
  <marker id="arrow2" markerWidth="10" markerHeight="8" refX="8" refY="4" orient="auto"><path d="M0,0 L10,4 L0,8 z" fill="#d64242"/></marker>
</defs><rect width="100%" height="100%" fill="#ffffff"/><text x="44" y="48" class="title">字符串哈希 · 步骤 1</text><text x="44" y="82" class="subtitle">字符串哈希把字符串看成 P 进制数字，并对模数取模。</text><text x="90" y="128" class="normal">字符串 s</text><rect x="90" y="150" width="58" height="58" rx="10" class="cell"/><text x="119.0" y="187" text-anchor="middle" class="normal">a</text><text x="119.0" y="232" text-anchor="middle" class="tiny">0</text><rect x="156" y="150" width="58" height="58" rx="10" class="cell"/><text x="185.0" y="187" text-anchor="middle" class="normal">a</text><text x="185.0" y="232" text-anchor="middle" class="tiny">1</text><rect x="222" y="150" width="58" height="58" rx="10" class="cell"/><text x="251.0" y="187" text-anchor="middle" class="normal">b</text><text x="251.0" y="232" text-anchor="middle" class="tiny">2</text><rect x="288" y="150" width="58" height="58" rx="10" class="cell"/><text x="317.0" y="187" text-anchor="middle" class="normal">a</text><text x="317.0" y="232" text-anchor="middle" class="tiny">3</text><rect x="354" y="150" width="58" height="58" rx="10" class="cell"/><text x="383.0" y="187" text-anchor="middle" class="normal">b</text><text x="383.0" y="232" text-anchor="middle" class="tiny">4</text><rect x="420" y="150" width="58" height="58" rx="10" class="cell"/><text x="449.0" y="187" text-anchor="middle" class="normal">a</text><text x="449.0" y="232" text-anchor="middle" class="tiny">5</text><rect x="90" y="300" width="600" height="62" rx="12" class="gray"/><text x="125" y="340" class="normal">h[i] = h[i-1] * P + val(s[i])</text><rect x="745" y="150" width="300" height="210" rx="14" class="gray"/><text x="780" y="220" class="normal">把字符映射成数字</text><text x="780" y="280" class="normal">连续拼接成一个大整数</text><rect x="70" y="470" width="960" height="58" rx="14" class="gray"/><text x="105" y="506" class="normal muted">• 哈希可以快速比较两个子串是否相等，但理论上存在碰撞。</text></svg>