<svg xmlns="http://www.w3.org/2000/svg" width="1100" height="560" viewBox="0 0 1100 560"><style>
text { font-family: "Microsoft YaHei", "PingFang SC", Arial, sans-serif; fill: #243447; }
.title { font-size: 28px; font-weight: 700; }
.subtitle { font-size: 19px; fill: #5b6b7a; }
.normal { font-size: 20px; }
.small { font-size: 15px; }
.tiny { font-size: 13px; fill: #5b6b7a; }
.muted { fill: #5b6b7a; }
.cell { fill:#eef3ff; stroke:#4c6fff; stroke-width:2; }
.hot { fill:#fff3cd; stroke:#e0ad00; stroke-width:2.2; }
.good { fill:#d7fbe8; stroke:#2ea44f; stroke-width:2.2; }
.bad { fill:#ffe6e6; stroke:#d64242; stroke-width:2.2; }
.gray { fill:#f4f5f7; stroke:#c7ccd1; stroke-width:1.5; }
.white { fill:#fff; stroke:#c7ccd1; stroke-width:1.5; }
.edge { stroke:#768399; stroke-width:2.4; }
.arrow { stroke:#3757d6; stroke-width:3; fill:none; marker-end:url(#arrow); }
.arrow2 { stroke:#d64242; stroke-width:3; fill:none; marker-end:url(#arrow2); }
</style>
<defs>
  <marker id="arrow" markerWidth="10" markerHeight="8" refX="8" refY="4" orient="auto"><path d="M0,0 L10,4 L0,8 z" fill="#3757d6"/></marker>
  <marker id="arrow2" markerWidth="10" markerHeight="8" refX="8" refY="4" orient="auto"><path d="M0,0 L10,4 L0,8 z" fill="#d64242"/></marker>
</defs><rect width="100%" height="100%" fill="#ffffff"/><text x="44" y="48" class="title">KMP 匹配过程 · 步骤 4</text><text x="44" y="82" class="subtitle">匹配完整模式串后，答案加一，并令 j=nxt[j] 继续寻找重叠匹配。</text><text x="90" y="118" class="normal">主串 s</text><rect x="90" y="140" width="58" height="58" rx="10" class="cell"/><text x="119.0" y="177" text-anchor="middle" class="normal">a</text><text x="119.0" y="222" text-anchor="middle" class="tiny">0</text><rect x="156" y="140" width="58" height="58" rx="10" class="cell"/><text x="185.0" y="177" text-anchor="middle" class="normal">b</text><text x="185.0" y="222" text-anchor="middle" class="tiny">1</text><rect x="222" y="140" width="58" height="58" rx="10" class="cell"/><text x="251.0" y="177" text-anchor="middle" class="normal">a</text><text x="251.0" y="222" text-anchor="middle" class="tiny">2</text><rect x="288" y="140" width="58" height="58" rx="10" class="cell"/><text x="317.0" y="177" text-anchor="middle" class="normal">b</text><text x="317.0" y="222" text-anchor="middle" class="tiny">3</text><rect x="354" y="140" width="58" height="58" rx="10" class="cell"/><text x="383.0" y="177" text-anchor="middle" class="normal">c</text><text x="383.0" y="222" text-anchor="middle" class="tiny">4</text><rect x="420" y="140" width="58" height="58" rx="10" class="good"/><text x="449.0" y="177" text-anchor="middle" class="normal">a</text><text x="449.0" y="222" text-anchor="middle" class="tiny">5</text><rect x="486" y="140" width="58" height="58" rx="10" class="good"/><text x="515.0" y="177" text-anchor="middle" class="normal">b</text><text x="515.0" y="222" text-anchor="middle" class="tiny">6</text><rect x="552" y="140" width="58" height="58" rx="10" class="good"/><text x="581.0" y="177" text-anchor="middle" class="normal">a</text><text x="581.0" y="222" text-anchor="middle" class="tiny">7</text><rect x="618" y="140" width="58" height="58" rx="10" class="good"/><text x="647.0" y="177" text-anchor="middle" class="normal">b</text><text x="647.0" y="222" text-anchor="middle" class="tiny">8</text><rect x="684" y="140" width="58" height="58" rx="10" class="good"/><text x="713.0" y="177" text-anchor="middle" class="normal">d</text><text x="713.0" y="222" text-anchor="middle" class="tiny">9</text><text x="90" y="253" class="normal">模式串 t</text><rect x="90" y="275" width="58" height="58" rx="10" class="good"/><text x="119.0" y="312" text-anchor="middle" class="normal">a</text><text x="119.0" y="357" text-anchor="middle" class="tiny">0</text><rect x="156" y="275" width="58" height="58" rx="10" class="good"/><text x="185.0" y="312" text-anchor="middle" class="normal">b</text><text x="185.0" y="357" text-anchor="middle" class="tiny">1</text><rect x="222" y="275" width="58" height="58" rx="10" class="good"/><text x="251.0" y="312" text-anchor="middle" class="normal">a</text><text x="251.0" y="357" text-anchor="middle" class="tiny">2</text><rect x="288" y="275" width="58" height="58" rx="10" class="good"/><text x="317.0" y="312" text-anchor="middle" class="normal">b</text><text x="317.0" y="357" text-anchor="middle" class="tiny">3</text><rect x="354" y="275" width="58" height="58" rx="10" class="good"/><text x="383.0" y="312" text-anchor="middle" class="normal">d</text><text x="383.0" y="357" text-anchor="middle" class="tiny">4</text><rect x="520" y="170" width="500" height="170" rx="14" class="gray"/><text x="555" y="225" class="normal">j == len(t)，匹配到一次完整出现</text><text x="555" y="275" class="normal">ans += 1，然后 j = nxt[j]</text><rect x="70" y="470" width="960" height="58" rx="14" class="gray"/><text x="105" y="506" class="normal muted">• 匹配完成后继续跳转，可以统计重叠出现次数。</text></svg>