<svg xmlns="http://www.w3.org/2000/svg" width="1100" height="560" viewBox="0 0 1100 560"><style>
text { font-family: "Microsoft YaHei", "PingFang SC", Arial, sans-serif; fill: #243447; }
.title { font-size: 28px; font-weight: 700; }
.subtitle { font-size: 19px; fill: #5b6b7a; }
.normal { font-size: 20px; }
.small { font-size: 15px; }
.tiny { font-size: 13px; fill: #5b6b7a; }
.muted { fill: #5b6b7a; }
.cell { fill:#eef3ff; stroke:#4c6fff; stroke-width:2; }
.hot { fill:#fff3cd; stroke:#e0ad00; stroke-width:2.2; }
.good { fill:#d7fbe8; stroke:#2ea44f; stroke-width:2.2; }
.bad { fill:#ffe6e6; stroke:#d64242; stroke-width:2.2; }
.gray { fill:#f4f5f7; stroke:#c7ccd1; stroke-width:1.5; }
.white { fill:#fff; stroke:#c7ccd1; stroke-width:1.5; }
.edge { stroke:#768399; stroke-width:2.4; }
.arrow { stroke:#3757d6; stroke-width:3; fill:none; marker-end:url(#arrow); }
.arrow2 { stroke:#d64242; stroke-width:3; fill:none; marker-end:url(#arrow2); }
</style>
<defs>
  <marker id="arrow" markerWidth="10" markerHeight="8" refX="8" refY="4" orient="auto"><path d="M0,0 L10,4 L0,8 z" fill="#3757d6"/></marker>
  <marker id="arrow2" markerWidth="10" markerHeight="8" refX="8" refY="4" orient="auto"><path d="M0,0 L10,4 L0,8 z" fill="#d64242"/></marker>
</defs><rect width="100%" height="100%" fill="#ffffff"/><text x="44" y="48" class="title">Trie 字典树 · 步骤 3</text><text x="44" y="82" class="subtitle">单词结尾需要打 end 标记，用来区分完整单词和普通前缀。</text><line x1="520" y1="144" x2="360" y2="196" class="edge"/><text x="440.0" y="165.0" text-anchor="middle" class="small">a</text><line x1="520" y1="144" x2="680" y2="196" class="edge"/><text x="600.0" y="165.0" text-anchor="middle" class="small">b</text><line x1="360" y1="244" x2="260" y2="306" class="edge"/><text x="310.0" y="270.0" text-anchor="middle" class="small">a</text><line x1="360" y1="244" x2="460" y2="306" class="edge"/><text x="410.0" y="270.0" text-anchor="middle" class="small">b</text><line x1="680" y1="244" x2="620" y2="306" class="edge"/><text x="650.0" y="270.0" text-anchor="middle" class="small">a</text><line x1="680" y1="244" x2="780" y2="306" class="edge"/><text x="730.0" y="270.0" text-anchor="middle" class="small">b</text><line x1="460" y1="354" x2="460" y2="406" class="edge"/><text x="460.0" y="375.0" text-anchor="middle" class="small">a</text><circle cx="520" cy="120" r="28" class="good"/><text x="520" y="127" text-anchor="middle" class="normal">根</text><circle cx="360" cy="220" r="28" class="good"/><text x="360" y="227" text-anchor="middle" class="normal">a</text><circle cx="680" cy="220" r="28" class="cell"/><text x="680" y="227" text-anchor="middle" class="normal">b</text><circle cx="260" cy="330" r="28" class="cell"/><text x="260" y="337" text-anchor="middle" class="normal">a</text><text x="260" y="380" text-anchor="middle" class="tiny">end</text><circle cx="460" cy="330" r="28" class="good"/><text x="460" y="337" text-anchor="middle" class="normal">b</text><circle cx="620" cy="330" r="28" class="cell"/><text x="620" y="337" text-anchor="middle" class="normal">a</text><circle cx="780" cy="330" r="28" class="cell"/><text x="780" y="337" text-anchor="middle" class="normal">b</text><text x="780" y="380" text-anchor="middle" class="tiny">end</text><circle cx="460" cy="430" r="28" class="good"/><text x="460" y="437" text-anchor="middle" class="normal">a</text><text x="460" y="480" text-anchor="middle" class="tiny">end</text><rect x="70" y="470" width="960" height="58" rx="14" class="gray"/><text x="105" y="506" class="normal muted">• end 标记很重要，例如 ab 是前缀，但不一定是完整单词。</text></svg>