<svg xmlns="http://www.w3.org/2000/svg" width="1100" height="560" viewBox="0 0 1100 560"><style>
text { font-family: "Microsoft YaHei", "PingFang SC", Arial, sans-serif; fill: #243447; }
.title { font-size: 28px; font-weight: 700; }
.subtitle { font-size: 19px; fill: #5b6b7a; }
.normal { font-size: 20px; }
.small { font-size: 15px; }
.tiny { font-size: 13px; fill: #5b6b7a; }
.muted { fill: #5b6b7a; }
.cell { fill:#eef3ff; stroke:#4c6fff; stroke-width:2; }
.hot { fill:#fff3cd; stroke:#e0ad00; stroke-width:2.2; }
.good { fill:#d7fbe8; stroke:#2ea44f; stroke-width:2.2; }
.bad { fill:#ffe6e6; stroke:#d64242; stroke-width:2.2; }
.gray { fill:#f4f5f7; stroke:#c7ccd1; stroke-width:1.5; }
.white { fill:#fff; stroke:#c7ccd1; stroke-width:1.5; }
.edge { stroke:#768399; stroke-width:2.4; }
.arrow { stroke:#3757d6; stroke-width:3; fill:none; marker-end:url(#arrow); }
.arrow2 { stroke:#d64242; stroke-width:3; fill:none; marker-end:url(#arrow2); }
</style>
<defs>
  <marker id="arrow" markerWidth="10" markerHeight="8" refX="8" refY="4" orient="auto"><path d="M0,0 L10,4 L0,8 z" fill="#3757d6"/></marker>
  <marker id="arrow2" markerWidth="10" markerHeight="8" refX="8" refY="4" orient="auto"><path d="M0,0 L10,4 L0,8 z" fill="#d64242"/></marker>
</defs><rect width="100%" height="100%" fill="#ffffff"/><text x="44" y="48" class="title">Z 函数计算过程 · 步骤 2</text><text x="44" y="82" class="subtitle">维护一个当前最右匹配段 [box_l, box_r]，它表示已经知道的一段前缀匹配。</text><text x="110" y="128" class="normal">字符串 s</text><rect x="110" y="150" width="58" height="58" rx="10" class="good"/><text x="139.0" y="187" text-anchor="middle" class="normal">b</text><text x="139.0" y="232" text-anchor="middle" class="tiny">0</text><rect x="176" y="150" width="58" height="58" rx="10" class="cell"/><text x="205.0" y="187" text-anchor="middle" class="normal">a</text><text x="205.0" y="232" text-anchor="middle" class="tiny">1</text><rect x="242" y="150" width="58" height="58" rx="10" class="hot"/><text x="271.0" y="187" text-anchor="middle" class="normal">b</text><text x="271.0" y="232" text-anchor="middle" class="tiny">2</text><rect x="308" y="150" width="58" height="58" rx="10" class="hot"/><text x="337.0" y="187" text-anchor="middle" class="normal">a</text><text x="337.0" y="232" text-anchor="middle" class="tiny">3</text><rect x="374" y="150" width="58" height="58" rx="10" class="hot"/><text x="403.0" y="187" text-anchor="middle" class="normal">b</text><text x="403.0" y="232" text-anchor="middle" class="tiny">4</text><text x="110" y="263" class="normal">后缀 s[i:] 对齐比较</text><rect x="110" y="285" width="58" height="58" rx="10" class="good"/><text x="139.0" y="322" text-anchor="middle" class="normal">b</text><text x="139.0" y="367" text-anchor="middle" class="tiny">0</text><rect x="176" y="285" width="58" height="58" rx="10" class="hot"/><text x="205.0" y="322" text-anchor="middle" class="normal">a</text><text x="205.0" y="367" text-anchor="middle" class="tiny">1</text><rect x="242" y="285" width="58" height="58" rx="10" class="hot"/><text x="271.0" y="322" text-anchor="middle" class="normal">b</text><text x="271.0" y="367" text-anchor="middle" class="tiny">2</text><rect x="308" y="285" width="58" height="58" rx="10" class="cell"/><text x="337.0" y="322" text-anchor="middle" class="normal">a</text><text x="337.0" y="367" text-anchor="middle" class="tiny">3</text><rect x="374" y="285" width="58" height="58" rx="10" class="cell"/><text x="403.0" y="322" text-anchor="middle" class="normal">b</text><text x="403.0" y="367" text-anchor="middle" class="tiny">4</text><rect x="520" y="150" width="500" height="210" rx="14" class="gray"/><text x="555" y="220" class="normal">当前盒子 [l,r] 表示 s[l..r] 与前缀相等</text><text x="555" y="275" class="normal">盒子越靠右，后面能复用的信息越多</text><rect x="70" y="470" width="960" height="58" rx="14" class="gray"/><text x="105" y="506" class="normal muted">• Z 算法和 KMP 一样，都是利用已经匹配过的信息减少重复比较。</text></svg>