<svg xmlns="http://www.w3.org/2000/svg" width="1100" height="560" viewBox="0 0 1100 560"><style>
text{font-family:"Microsoft YaHei","PingFang SC",Arial,sans-serif;fill:#243447}.title{font-size:28px;font-weight:700}.sub{font-size:18px;fill:#5b6b7a}.normal{font-size:20px}.small{font-size:16px}.cell{fill:#f8fbff;stroke:#4c6fff;stroke-width:2}.hot{fill:#fff3cd;stroke:#e0ad00;stroke-width:2.5}.done{fill:#d7fbe8;stroke:#2ea44f;stroke-width:2.5}.gray{fill:#f4f5f7;stroke:#c7ccd1;stroke-width:1.5}.edge{stroke:#768399;stroke-width:2}.arrow{stroke:#3757d6;stroke-width:3;fill:none;marker-end:url(#arrow)}.red{fill:#ffe6e6;stroke:#d64242;stroke-width:2.5}.white{fill:white}
</style><defs><marker id="arrow" markerWidth="10" markerHeight="8" refX="8" refY="4" orient="auto"><path d="M0,0 L10,4 L0,8 z" fill="#3757d6"/></marker></defs><rect width="100%" height="100%" fill="#ffffff"/><text x="42" y="55" class="title">第 3 步：计算长度为 3 的区间</text><text x="42" y="90" class="sub">长度为 3 时，需要枚举最后一次合并的分割点 k。</text><text x="70" y="140" class="normal">石子序列</text><rect x="70" y="165" width="80" height="58" rx="12" class="hot"/><text x="110.0" y="202" text-anchor="middle" class="normal">4</text><text x="110.0" y="247" text-anchor="middle" class="small">1</text><rect x="164" y="165" width="80" height="58" rx="12" class="hot"/><text x="204.0" y="202" text-anchor="middle" class="normal">1</text><text x="204.0" y="247" text-anchor="middle" class="small">2</text><rect x="258" y="165" width="80" height="58" rx="12" class="hot"/><text x="298.0" y="202" text-anchor="middle" class="normal">3</text><text x="298.0" y="247" text-anchor="middle" class="small">3</text><rect x="352" y="165" width="80" height="58" rx="12" class="cell"/><text x="392.0" y="202" text-anchor="middle" class="normal">2</text><text x="392.0" y="247" text-anchor="middle" class="small">4</text><path d="M150 280 C190 320, 280 320, 325 280" class="arrow"/><text x="232" y="350" text-anchor="middle" class="small">枚举分割点 k</text><text x="520" y="107" class="normal">DP 表：f[l][r]</text><text x="619.0" y="129" text-anchor="middle" class="small">r=1</text><text x="685.0" y="129" text-anchor="middle" class="small">r=2</text><text x="751.0" y="129" text-anchor="middle" class="small">r=3</text><text x="817.0" y="129" text-anchor="middle" class="small">r=4</text><text x="510" y="240.0" text-anchor="end" class="small">l=1</text><rect x="586" y="201" width="66" height="66" rx="8" class="cell"/><text x="619.0" y="241.0" text-anchor="middle" class="normal">0</text><rect x="652" y="201" width="66" height="66" rx="8" class="cell"/><text x="685.0" y="241.0" text-anchor="middle" class="normal">5</text><rect x="718" y="201" width="66" height="66" rx="8" class="cell"/><text x="751.0" y="241.0" text-anchor="middle" class="normal">12</text><rect x="784" y="201" width="66" height="66" rx="8" class="cell"/><text x="510" y="306.0" text-anchor="end" class="small">l=2</text><rect x="586" y="267" width="66" height="66" rx="8" class="gray"/><rect x="652" y="267" width="66" height="66" rx="8" class="cell"/><text x="685.0" y="307.0" text-anchor="middle" class="normal">0</text><rect x="718" y="267" width="66" height="66" rx="8" class="cell"/><text x="751.0" y="307.0" text-anchor="middle" class="normal">4</text><rect x="784" y="267" width="66" height="66" rx="8" class="cell"/><text x="817.0" y="307.0" text-anchor="middle" class="normal">10</text><text x="510" y="372.0" text-anchor="end" class="small">l=3</text><rect x="586" y="333" width="66" height="66" rx="8" class="gray"/><rect x="652" y="333" width="66" height="66" rx="8" class="gray"/><rect x="718" y="333" width="66" height="66" rx="8" class="cell"/><text x="751.0" y="373.0" text-anchor="middle" class="normal">0</text><rect x="784" y="333" width="66" height="66" rx="8" class="cell"/><text x="817.0" y="373.0" text-anchor="middle" class="normal">5</text><text x="510" y="438.0" text-anchor="end" class="small">l=4</text><rect x="586" y="399" width="66" height="66" rx="8" class="gray"/><rect x="652" y="399" width="66" height="66" rx="8" class="gray"/><rect x="718" y="399" width="66" height="66" rx="8" class="gray"/><rect x="784" y="399" width="66" height="66" rx="8" class="cell"/><text x="817.0" y="439.0" text-anchor="middle" class="normal">0</text><rect x="60" y="440" width="980" height="80" rx="16" class="gray"/><text x="92" y="472" class="normal">• f[1][3] 枚举 k=1 和 k=2。</text><text x="92" y="504" class="normal">• 取更小值：min(0+4+8, 5+0+8)=12。</text></svg>