<svg xmlns="http://www.w3.org/2000/svg" width="960" height="430" viewBox="0 0 960 430" role="img" aria-label="LIS 第 2 步示意图">
<defs>
      <marker id="arrow" markerWidth="10" markerHeight="10" refX="7" refY="3" orient="auto" markerUnits="strokeWidth">
        <path d="M0,0 L0,6 L8,3 z" fill="#3f51b5" />
      </marker>
    </defs>
<rect x="0" y="0" width="960" height="430" rx="18" fill="#ffffff"/>
<text x="48" y="46" font-size="24" font-weight="700" fill="#222">LIS 贪心 + 二分：第 2 步，处理 x = 4</text>
<text x="48" y="106" font-size="17" fill="#444">原序列</text>
<rect x="80" y="122" width="56" height="48" rx="8" fill="#f7f9ff" stroke="#3f51b5" stroke-width="2"/>
<text x="108.0" y="153" text-anchor="middle" font-size="20" fill="#222">1</text>
<rect x="148" y="122" width="56" height="48" rx="8" fill="#fff4cc" stroke="#f4a400" stroke-width="2"/>
<text x="176.0" y="153" text-anchor="middle" font-size="20" fill="#222">4</text>
<rect x="216" y="122" width="56" height="48" rx="8" fill="#f7f9ff" stroke="#3f51b5" stroke-width="2"/>
<text x="244.0" y="153" text-anchor="middle" font-size="20" fill="#222">2</text>
<rect x="284" y="122" width="56" height="48" rx="8" fill="#f7f9ff" stroke="#3f51b5" stroke-width="2"/>
<text x="312.0" y="153" text-anchor="middle" font-size="20" fill="#222">2</text>
<rect x="352" y="122" width="56" height="48" rx="8" fill="#f7f9ff" stroke="#3f51b5" stroke-width="2"/>
<text x="380.0" y="153" text-anchor="middle" font-size="20" fill="#222">5</text>
<rect x="420" y="122" width="56" height="48" rx="8" fill="#f7f9ff" stroke="#3f51b5" stroke-width="2"/>
<text x="448.0" y="153" text-anchor="middle" font-size="20" fill="#222">6</text>
<text x="48" y="215" font-size="17" fill="#444">操作：4 大于所有结尾，追加到 g 末尾</text>
<text x="48" y="282" font-size="17" fill="#444">当前 g 数组</text>
<rect x="200" y="244" width="82" height="58" rx="9" fill="#f7f9ff" stroke="#3f51b5" stroke-width="2"/>
<text x="241.0" y="280" text-anchor="middle" font-size="22" fill="#222">1</text>
<text x="241.0" y="329" text-anchor="middle" font-size="15" fill="#666">长度 1</text>
<rect x="298" y="244" width="82" height="58" rx="9" fill="#f7f9ff" stroke="#3f51b5" stroke-width="2"/>
<text x="339.0" y="280" text-anchor="middle" font-size="22" fill="#222">4</text>
<text x="339.0" y="329" text-anchor="middle" font-size="15" fill="#666">长度 2</text>
<rect x="560" y="228" width="330" height="105" rx="12" fill="#f5f7ff" stroke="#d7dcff"/>
<text x="582" y="262" font-size="17" font-weight="700" fill="#222">规则</text>
<text x="582" y="292" font-size="16" fill="#444">用二分找到第一个 ≥ x 的位置。</text>
<text x="582" y="320" font-size="16" fill="#444">能扩展就追加，否则替换更大的结尾。</text>
</svg>